<svg xmlns="http://www.w3.org/2000/svg" xmlns:xlink="http://www.w3.org/1999/xlink" width="300" zoomAndPan="magnify" viewBox="0 0 224.87999 225" height="300" preserveAspectRatio="xMidYMid meet" version="1.2"><defs><clipPath id="9fce10493b"><path d="M 78.707031 29.746094 L 146.171875 29.746094 L 146.171875 97.210938 L 78.707031 97.210938 Z M 78.707031 29.746094 "/></clipPath><clipPath id="d84762217e"><path d="M 112.441406 29.746094 C 93.808594 29.746094 78.707031 44.851562 78.707031 63.480469 C 78.707031 82.109375 93.808594 97.210938 112.441406 97.210938 C 131.070312 97.210938 146.171875 82.109375 146.171875 63.480469 C 146.171875 44.851562 131.070312 29.746094 112.441406 29.746094 Z M 112.441406 29.746094 "/></clipPath></defs><g id="8e69252e2a"><path style=" stroke:none;fill-rule:nonzero;fill:#f48d9d;fill-opacity:1;" d="M 60.550781 66.667969 C 59.621094 -0.132812 164.484375 -0.132812 163.546875 66.671875 C 164.476562 133.46875 59.613281 133.46875 60.550781 66.667969 Z M 146.34375 135.335938 L 77.679688 135.335938 C 53.859375 134.347656 26.710938 161.238281 37.511719 184.972656 C 38.75 186.152344 40.019531 187.300781 41.316406 188.421875 C 42.609375 189.542969 43.929688 190.628906 45.277344 191.6875 C 46.625 192.742188 47.996094 193.765625 49.390625 194.757812 C 50.785156 195.75 52.203125 196.710938 53.644531 197.632812 C 55.085938 198.558594 56.546875 199.449219 58.03125 200.304688 C 59.511719 201.160156 61.015625 201.976562 62.539062 202.761719 C 64.058594 203.546875 65.597656 204.292969 67.15625 205.003906 C 68.714844 205.714844 70.285156 206.386719 71.875 207.023438 C 73.464844 207.660156 75.070312 208.257812 76.6875 208.820312 C 78.304688 209.378906 79.933594 209.902344 81.578125 210.382812 C 83.21875 210.867188 84.871094 211.308594 86.535156 211.714844 C 88.199219 212.117188 89.871094 212.484375 91.550781 212.808594 C 93.234375 213.132812 94.921875 213.417969 96.613281 213.664062 C 98.308594 213.90625 100.007812 214.113281 101.710938 214.277344 C 103.417969 214.441406 105.125 214.566406 106.832031 214.648438 C 108.542969 214.730469 110.253906 214.773438 111.964844 214.777344 C 113.675781 214.777344 115.386719 214.738281 117.097656 214.660156 C 118.808594 214.582031 120.515625 214.460938 122.21875 214.300781 C 123.925781 214.140625 125.625 213.941406 127.320312 213.699219 C 129.015625 213.460938 130.703125 213.179688 132.382812 212.859375 C 134.066406 212.539062 135.738281 212.175781 137.402344 211.777344 C 139.066406 211.378906 140.722656 210.9375 142.363281 210.457031 C 144.007812 209.980469 145.640625 209.460938 147.257812 208.90625 C 148.878906 208.351562 150.484375 207.757812 152.074219 207.125 C 153.664062 206.492188 155.238281 205.820312 156.800781 205.117188 C 158.359375 204.410156 159.898438 203.664062 161.421875 202.882812 C 162.949219 202.105469 164.453125 201.289062 165.9375 200.4375 C 167.421875 199.585938 168.886719 198.699219 170.328125 197.777344 C 171.773438 196.859375 173.191406 195.902344 174.589844 194.914062 C 175.988281 193.925781 177.363281 192.90625 178.710938 191.851562 C 180.058594 190.796875 181.382812 189.714844 182.683594 188.597656 C 183.980469 187.480469 185.25 186.332031 186.492188 185.15625 C 197.375 161.441406 170.558594 134.433594 146.34375 135.335938 Z M 146.34375 135.335938 "/><g clip-rule="nonzero" clip-path="url(#9fce10493b)"><g clip-rule="nonzero" clip-path="url(#d84762217e)"><path style=" stroke:none;fill-rule:nonzero;fill:#f48d9d;fill-opacity:1;" d="M 78.707031 29.746094 L 146.171875 29.746094 L 146.171875 97.210938 L 78.707031 97.210938 Z M 78.707031 29.746094 "/></g></g></g></svg>